<svg viewBox="0 0 11 11" fill="none" xmlns="http://www.w3.org/2000/svg">
    <path
        d="M5.06664 -3.28679e-05C5.15552 -3.28601e-05 5.23886 0.0137449 5.31664 0.0413004C5.39441 0.0688558 5.46663 0.116191 5.5333 0.183302L9.9333 4.5833C10.0666 4.71663 10.1333 4.87486 10.1333 5.05797C10.1333 5.24108 10.0666 5.39952 9.9333 5.5333C9.79997 5.66663 9.64441 5.7333 9.46663 5.7333C9.28886 5.7333 9.1333 5.66663 8.99997 5.5333L5.7333 2.26663L5.7333 9.7333C5.7333 9.92219 5.6693 10.0777 5.5413 10.2C5.4133 10.3222 5.25508 10.3833 5.06663 10.3833C4.87775 10.3833 4.7193 10.3193 4.5913 10.1913C4.4633 10.0633 4.39952 9.90508 4.39997 9.71663L4.39997 2.26663L1.1333 5.5333C0.999968 5.66663 0.844411 5.7333 0.666634 5.7333C0.488856 5.7333 0.333301 5.66663 0.199968 5.5333C0.0666346 5.39997 -3.29291e-05 5.24152 -3.2913e-05 5.05797C-3.2897e-05 4.87441 0.0666347 4.71619 0.199968 4.5833L4.59997 0.183301C4.66664 0.116635 4.73886 0.0693002 4.81664 0.0413003C4.89441 0.0133004 4.97775 -0.000477288 5.06664 -3.28679e-05Z"
        fill="#1EB564" />
</svg>