<svg viewBox="0 0 11 11" fill="none" xmlns="http://www.w3.org/2000/svg">
    <g clip-path="url(#clip0_4212_29347)">
        <path
            d="M5.93333 11C5.84445 11 5.76111 10.9862 5.68333 10.9587C5.60556 10.9311 5.53334 10.8838 5.46667 10.8167L1.06667 6.41666C0.933367 6.28333 0.866667 6.1251 0.866667 5.94199C0.866667 5.75888 0.933367 5.60044 1.06667 5.46666C1.2 5.33333 1.35556 5.26666 1.53334 5.26666C1.71111 5.26666 1.86667 5.33333 2 5.46666L5.26667 8.73333L5.26667 1.26666C5.26667 1.07777 5.33067 0.922257 5.45867 0.799957C5.58667 0.677757 5.74489 0.616657 5.93334 0.616657C6.12222 0.616657 6.28067 0.680657 6.40867 0.808657C6.53667 0.936657 6.60045 1.09488 6.6 1.28333L6.6 8.73333L9.86667 5.46666C10 5.33333 10.1556 5.26666 10.3333 5.26666C10.5111 5.26666 10.6667 5.33333 10.8 5.46666C10.9333 5.59999 11 5.75844 11 5.94199C11 6.12555 10.9333 6.28377 10.8 6.41666L6.4 10.8167C6.33333 10.8833 6.26111 10.9307 6.18333 10.9587C6.10556 10.9867 6.02222 11.0004 5.93333 11Z"
            fill="#FE3B00" />
    </g>
    <defs>
        <clipPath id="clip0_4212_29347">
            <rect width="11" height="11" fill="white" transform="matrix(-1 0 0 -1 11 11)" />
        </clipPath>
    </defs>
</svg>