<svg viewBox="0 0 20 20" fill="none" xmlns="http://www.w3.org/2000/svg">
    <path
        d="M7.63021 9.68268C7.60521 9.68268 7.58854 9.68268 7.56354 9.68268C7.52188 9.67435 7.46354 9.67435 7.41354 9.68268C4.99687 9.60768 3.17188 7.70768 3.17188 5.36602C3.17188 2.98268 5.11354 1.04102 7.49688 1.04102C9.88021 1.04102 11.8219 2.98268 11.8219 5.36602C11.8135 7.70768 9.98021 9.60768 7.65521 9.68268C7.64687 9.68268 7.63854 9.68268 7.63021 9.68268ZM7.49688 2.29102C5.80521 2.29102 4.42188 3.67435 4.42188 5.36602C4.42188 7.03268 5.72187 8.37435 7.38021 8.43268C7.43021 8.42435 7.53854 8.42435 7.64688 8.43268C9.28021 8.35768 10.5635 7.01602 10.5719 5.36602C10.5719 3.67435 9.18854 2.29102 7.49688 2.29102Z"
        fill="white" />
    <path
        d="M13.78 9.79232C13.755 9.79232 13.73 9.79232 13.705 9.78399C13.3634 9.81732 13.0134 9.57565 12.98 9.23398C12.9467 8.89232 13.155 8.58398 13.4967 8.54232C13.5967 8.53399 13.705 8.53398 13.7967 8.53398C15.0134 8.46732 15.9634 7.46732 15.9634 6.24232C15.9634 4.97565 14.9384 3.95065 13.6717 3.95065C13.33 3.95898 13.0467 3.67565 13.0467 3.33398C13.0467 2.99232 13.33 2.70898 13.6717 2.70898C15.6217 2.70898 17.2134 4.30065 17.2134 6.25065C17.2134 8.16732 15.7134 9.71732 13.805 9.79232C13.7967 9.79232 13.7884 9.79232 13.78 9.79232Z"
        fill="white" />
    <path
        d="M7.64427 18.7923C6.01094 18.7923 4.36927 18.3757 3.1276 17.5423C1.96927 16.7757 1.33594 15.7257 1.33594 14.584C1.33594 13.4423 1.96927 12.384 3.1276 11.609C5.6276 9.95065 9.6776 9.95065 12.1609 11.609C13.3109 12.3757 13.9526 13.4257 13.9526 14.5673C13.9526 15.709 13.3193 16.7673 12.1609 17.5423C10.9109 18.3757 9.2776 18.7923 7.64427 18.7923ZM3.81927 12.659C3.01927 13.1923 2.58594 13.8757 2.58594 14.5923C2.58594 15.3007 3.0276 15.984 3.81927 16.509C5.89427 17.9007 9.39427 17.9007 11.4693 16.509C12.2693 15.9757 12.7026 15.2923 12.7026 14.5757C12.7026 13.8673 12.2609 13.184 11.4693 12.659C9.39427 11.2757 5.89427 11.2757 3.81927 12.659Z"
        fill="white" />
    <path
        d="M15.2844 17.2917C14.9928 17.2917 14.7344 17.0917 14.6761 16.7917C14.6094 16.45 14.8261 16.125 15.1594 16.05C15.6844 15.9417 16.1678 15.7333 16.5428 15.4417C17.0178 15.0833 17.2761 14.6333 17.2761 14.1583C17.2761 13.6833 17.0178 13.2333 16.5511 12.8833C16.1844 12.6 15.7261 12.4 15.1844 12.275C14.8511 12.2 14.6344 11.8667 14.7094 11.525C14.7844 11.1917 15.1178 10.975 15.4594 11.05C16.1761 11.2083 16.8011 11.4917 17.3094 11.8833C18.0844 12.4667 18.5261 13.2917 18.5261 14.1583C18.5261 15.025 18.0761 15.85 17.3011 16.4417C16.7844 16.8417 16.1344 17.1333 15.4178 17.275C15.3678 17.2917 15.3261 17.2917 15.2844 17.2917Z"
        fill="white" />
</svg>