<svg viewBox="0 0 40 40" fill="none" xmlns="http://www.w3.org/2000/svg">
    <rect width="40" height="40" rx="8" fill="#DBEAFE" />
    <path
        d="M26.4806 11H13.5194C12.1302 11 11 12.1302 11 13.5194V26.4808C11 27.87 12.1302 29 13.5194 29H26.4808C27.87 29 29 27.87 29 26.4806V13.5194C29 12.1302 27.87 11 26.4806 11ZM17.2858 24.6858C17.2858 25.1276 16.9276 25.4858 16.4858 25.4858C16.044 25.4858 15.6858 25.1276 15.6858 24.6858V22.3258C15.6858 21.884 16.044 21.5258 16.4858 21.5258C16.9276 21.5258 17.2858 21.884 17.2858 22.3258V24.6858ZM20.8 24.6858C20.8 25.1276 20.4418 25.4858 20 25.4858C19.5582 25.4858 19.2 25.1276 19.2 24.6858V20C19.2 19.5582 19.5582 19.2 20 19.2C20.4418 19.2 20.8 19.5582 20.8 20V24.6858ZM24.3142 24.6858C24.3142 25.1276 23.956 25.4858 23.5142 25.4858C23.0724 25.4858 22.7142 25.1276 22.7142 24.6858V15.3142C22.7142 14.8724 23.0724 14.5142 23.5142 14.5142C23.956 14.5142 24.3142 14.8724 24.3142 15.3142V24.6858Z"
        fill="#2563EB" />
</svg>